<svg width="103" height="14" viewBox="0 0 103 14" fill="none" xmlns="http://www.w3.org/2000/svg">
<path d="M5.85389 7.672H2.41589V13H0.147891V0.399999H2.41589V5.584H5.85389V0.399999H8.12189V13H5.85389V7.672ZM17.3235 2.488H14.3355V13H12.0675V2.488H9.07955V0.399999H17.3235V2.488ZM26.3349 6.502L26.5869 4.09H26.4969L25.8309 6.25L23.7789 10.678H23.0229L20.8449 6.232L20.1789 4.054H20.0709L20.4129 6.484V13H18.2709V0.399999H20.4489L23.0769 5.854L23.5089 7.42H23.5809L23.9949 5.818L26.4609 0.399999H28.6029V13H26.3349V6.502ZM36.9201 13H30.2241V0.399999H32.4921V10.912H36.9201V13ZM45.2321 10.156H42.2621L41.5241 13H39.2741L42.9281 0.309999H44.7101L48.3821 13H46.0061L45.2321 10.156ZM42.7481 8.284H44.8361L44.1161 5.35L43.8281 3.37H43.7561L43.4501 5.368L42.7481 8.284ZM55.8271 12.496C55.5151 12.76 55.0951 12.952 54.5671 13.072C54.0511 13.192 53.5351 13.252 53.0191 13.252C52.3711 13.252 51.7651 13.144 51.2011 12.928C50.6491 12.7 50.1631 12.328 49.7431 11.812C49.3231 11.296 48.9931 10.618 48.7531 9.778C48.5131 8.938 48.3931 7.906 48.3931 6.682C48.3931 5.41 48.5251 4.354 48.7891 3.514C49.0651 2.674 49.4191 2.008 49.8511 1.516C50.2951 1.012 50.7991 0.658 51.3631 0.454C51.9271 0.249999 52.4971 0.147999 53.0731 0.147999C53.6611 0.147999 54.1711 0.195999 54.6031 0.291999C55.0471 0.388 55.4071 0.496 55.6831 0.616L55.2331 2.614C55.0051 2.494 54.7351 2.404 54.4231 2.344C54.1231 2.272 53.7631 2.236 53.3431 2.236C52.5151 2.236 51.8791 2.596 51.4351 3.316C50.9911 4.036 50.7691 5.164 50.7691 6.7C50.7691 7.36 50.8171 7.966 50.9131 8.518C51.0211 9.058 51.1831 9.526 51.3991 9.922C51.6271 10.318 51.9091 10.624 52.2451 10.84C52.5931 11.056 53.0071 11.164 53.4871 11.164C53.9071 11.164 54.2671 11.11 54.5671 11.002C54.8671 10.882 55.1371 10.744 55.3771 10.588L55.8271 12.496ZM61.3161 10.156H58.3461L57.6081 13H55.3581L59.0121 0.309999H60.7941L64.4661 13H62.0901L61.3161 10.156ZM58.8321 8.284H60.9201L60.2001 5.35L59.9121 3.37H59.8401L59.5341 5.368L58.8321 8.284ZM65.2397 0.399999C65.4557 0.364 65.6957 0.34 65.9597 0.327999C66.2357 0.303999 66.5117 0.286 66.7877 0.274C67.0757 0.249999 67.3517 0.237999 67.6157 0.237999C67.8797 0.225999 68.1137 0.219999 68.3177 0.219999C69.3137 0.219999 70.1417 0.375999 70.8017 0.688C71.4737 0.987999 72.0077 1.42 72.4037 1.984C72.8117 2.536 73.0997 3.202 73.2677 3.982C73.4357 4.762 73.5197 5.632 73.5197 6.592C73.5197 7.468 73.4357 8.308 73.2677 9.112C73.1117 9.904 72.8297 10.606 72.4217 11.218C72.0137 11.818 71.4617 12.298 70.7657 12.658C70.0697 13.018 69.1937 13.198 68.1377 13.198C67.9817 13.198 67.7717 13.192 67.5077 13.18C67.2437 13.168 66.9677 13.15 66.6797 13.126C66.3917 13.114 66.1157 13.096 65.8517 13.072C65.5877 13.06 65.3837 13.042 65.2397 13.018V0.399999ZM68.5517 2.308C68.3597 2.308 68.1617 2.314 67.9577 2.326C67.7657 2.326 67.6157 2.338 67.5077 2.362V11.038C67.5437 11.05 67.6037 11.062 67.6877 11.074C67.7837 11.074 67.8797 11.08 67.9757 11.092C68.0837 11.092 68.1797 11.098 68.2637 11.11C68.3597 11.11 68.4257 11.11 68.4617 11.11C69.0017 11.11 69.4457 10.984 69.7937 10.732C70.1417 10.48 70.4117 10.144 70.6037 9.724C70.8077 9.304 70.9457 8.824 71.0177 8.284C71.1017 7.732 71.1437 7.156 71.1437 6.556C71.1437 6.004 71.1077 5.47 71.0357 4.954C70.9757 4.438 70.8497 3.988 70.6577 3.604C70.4777 3.208 70.2137 2.896 69.8657 2.668C69.5297 2.428 69.0917 2.308 68.5517 2.308ZM74.8725 0.399999H81.1725V2.488H77.1405V5.584H80.7945V7.672H77.1405V10.912H81.2445V13H74.8725V0.399999ZM90.6709 6.502L90.9229 4.09H90.8329L90.1669 6.25L88.1149 10.678H87.3589L85.1809 6.232L84.5149 4.054H84.4069L84.7489 6.484V13H82.6069V0.399999H84.7849L87.4129 5.854L87.8449 7.42H87.9169L88.3309 5.818L90.7969 0.399999H92.9389V13H90.6709V6.502ZM97.062 8.32L93.678 0.399999H96.378L98.124 5.17L98.304 6.538H98.394L98.592 5.134L100.302 0.399999H102.732L99.33 8.302V13H97.062V8.32Z" fill="white"/>
</svg>
